<svg xmlns="http://www.w3.org/2000/svg" width="92.47" height="38.667" viewBox="0 0 92.47 38.667"><defs><style>.a{fill:#3ab14a;}.b{fill:#fff;}.c{fill:#aaaeba;}</style></defs><g transform="translate(-380.535 -316.161)"><path class="a" d="M453.616,316.161H399.924a19.333,19.333,0,1,0,0,38.667h53.692a19.333,19.333,0,1,0,0-38.667Z" transform="translate(0)"/><ellipse class="b" cx="17.021" cy="16.513" rx="17.021" ry="16.513" transform="translate(436.061 318.981)"/><g transform="translate(440.887 329.328)"><path class="c" d="M1156.966,461.535H1154.7a.212.212,0,0,0-.216.238v11.639a.212.212,0,0,0,.216.238h2.267a.212.212,0,0,0,.217-.238V461.773A.212.212,0,0,0,1156.966,461.535Z" transform="translate(-1144.723 -461.533)"/><path class="c" d="M1211.264,461.745a.238.238,0,0,0-.25-.184h-2.972a.212.212,0,0,0-.216.238v11.634a.212.212,0,0,0,.216.238h2.267a.212.212,0,0,0,.217-.238v-4.689c0-.387,0-.732-.011-1.059v-2.46l.068.088,1.313,2.918h0v-.024l.9,1.932a35.791,35.791,0,0,0,1.625,3.349c.068.12.116.184.25.184h2.966a.212.212,0,0,0,.217-.238V461.8a.212.212,0,0,0-.217-.238h-2.25a.212.212,0,0,0-.217.238v1.136h0v7.072l-.068-.088L1213.795,467h0" transform="translate(-1193.233 -461.556)"/><path class="c" d="M1054.975,461.511h-8.017a.212.212,0,0,0-.216.238v11.639a.212.212,0,0,0,.216.238h2.267a.212.212,0,0,0,.217-.238v-3.64h4.25a.212.212,0,0,0,.217-.238V467.3a.221.221,0,0,0-.217-.249l-4.25.011v-2.921l4.95.015c.117,0,.2-.1.233-.233l.533-2.132C1055.192,461.621,1055.125,461.511,1054.975,461.511Z" transform="translate(-1046.742 -461.511)"/></g><g transform="translate(388.061 329.133)"><path class="b" d="M669.07,473.155a.212.212,0,0,1-.217.238h-2.266a.212.212,0,0,1-.217-.238V461.44a.212.212,0,0,1,.217-.238h2.266a.212.212,0,0,1,.217.238Z" transform="translate(-648.002 -461.035)"/><path class="b" d="M718.7,466.519c-2.283-.935-3.117-1.852-3.117-3.85,0-2.4,1.65-3.314,4.283-3.314a7.739,7.739,0,0,1,2.666.477l1.1.4a.215.215,0,0,1,.15.293l-.683,1.609c-.05.147-.133.2-.266.147l-.983-.33a6.248,6.248,0,0,0-1.983-.385c-.933,0-1.567.44-1.567,1.1,0,.642.517.935,1.466,1.32l1.4.568c2.317.954,3.15,1.907,3.15,3.905,0,2.512-1.55,3.628-4.383,3.628a8.885,8.885,0,0,1-3.283-.605l-1.1-.385a.215.215,0,0,1-.15-.293l.667-1.813c.05-.147.133-.2.267-.147l1.167.385a7.332,7.332,0,0,0,2.433.44c.9,0,1.667-.238,1.667-1.21,0-.55-.583-.972-1.5-1.357Z" transform="translate(-692.584 -459.355)"/><path class="b" d="M842.686,473.463a.212.212,0,0,1-.217.238h-2.25a.212.212,0,0,1-.216-.238v-4.708H835.67v4.708a.212.212,0,0,1-.217.238h-2.267a.212.212,0,0,1-.216-.238V461.829a.212.212,0,0,1,.216-.238h2.267a.212.212,0,0,1,.217.238v4.341H840v-4.341a.212.212,0,0,1,.216-.238h2.25a.212.212,0,0,1,.217.238Z" transform="translate(-799.51 -461.388)"/><path class="b" d="M480.2,461.549h-2.3a.242.242,0,0,0-.25.2l-1.115,4.509c-.088.385-.171.805-.249,1.235l-.555,2.542-.561-2.409c-.094-.478-.2-.946-.3-1.371l-.311-1.266c-.294-1.245-.541-1.993-.754-3.222a.218.218,0,0,0-.233-.22H470.44a.218.218,0,0,0-.233.22c-.213,1.228-.46,1.977-.754,3.222l-.311,1.266c-.108.425-.209.893-.3,1.371l-.561,2.409-.555-2.542c-.078-.429-.162-.849-.249-1.235l-1.115-4.509a.242.242,0,0,0-.25-.2h-2.3a.18.18,0,0,0-.183.256l2.05,8.356c.3,1.265.55,2.031.767,3.277a.218.218,0,0,0,.233.22h3.2a.242.242,0,0,0,.25-.2l1.115-4.509c.088-.386.171-.806.25-1.235l.515-2.361.515,2.361c.078.429.162.849.25,1.235l1.115,4.509a.242.242,0,0,0,.25.2h3.2a.218.218,0,0,0,.233-.22c.217-1.247.466-2.012.767-3.277l2.05-8.356A.18.18,0,0,0,480.2,461.549Z" transform="translate(-463.611 -461.349)"/></g></g></svg>